<svg xmlns="http://www.w3.org/2000/svg" viewBox="0 0 80 80"><defs><style>.a{fill:#fff;}.b{fill:#f00;}</style></defs><title>logo</title><path class="b" d="M50.22,4.09H70.47V9.65h-14v7.89h13v5.56h-13V36H50.22V4.09Z"/><path class="b" d="M9.23,14.35A15.05,15.05,0,0,1,13.09,12a8.88,8.88,0,0,1,3.17-.66,7.62,7.62,0,0,1,2.46.39q1.14,0.39,2.19.82T23,13.34a5.82,5.82,0,0,0,2.07.39,5.59,5.59,0,0,0,1.69-.27,5.7,5.7,0,0,0,1.82-1l2.14,4.67a12.17,12.17,0,0,1-3,1.72,7.49,7.49,0,0,1-2.55.5,6.8,6.8,0,0,1-2.37-.4q-1.09-.4-2.12-0.9t-2.07-.9a6.18,6.18,0,0,0-2.23-.4,6.73,6.73,0,0,0-2.35.47,9.94,9.94,0,0,0-2.76,1.72Zm0,8.76a15,15,0,0,1,3.85-2.38,8.89,8.89,0,0,1,3.17-.66,7.62,7.62,0,0,1,2.46.39q1.14,0.39,2.19.82T23,22.1a5.82,5.82,0,0,0,2.07.39,5.59,5.59,0,0,0,1.69-.27,5.69,5.69,0,0,0,1.82-1l2.14,4.67a12.16,12.16,0,0,1-3,1.72,7.49,7.49,0,0,1-2.55.5,6.79,6.79,0,0,1-2.37-.4q-1.09-.4-2.12-0.9t-2.07-.9a6.18,6.18,0,0,0-2.23-.4,6.72,6.72,0,0,0-2.35.47,9.93,9.93,0,0,0-2.76,1.72Z"/><path class="a" d="M8.3,63.15c0-1.68,0-2.88.07-4.34a19.81,19.81,0,0,1-2.48,3.9,15,15,0,0,0-1.68-4.3,27,27,0,0,0,4.26-6.92,30.24,30.24,0,0,0,2.3-7.4l3.79,1.2c-0.11.33-.15,0.44-0.22,0.73s-0.11.37-.29,0.91a1.57,1.57,0,0,1-.11.36c-0.29,1.09-.55,1.86-0.77,2.51-0.07.15-.33,0.84-0.73,1.86-0.07.22-.22,0.55-0.36,1V73.2a38.45,38.45,0,0,0,.18,4.37H8.08A38.38,38.38,0,0,0,8.3,73.2V63.15Zm7.87-14.06a26.26,26.26,0,0,0-.22-4h4.26a21.4,21.4,0,0,0-.22,4V65.66c2.37-1,4-1.82,7-3.39l0.15,3.53c-3,1.75-4.85,2.73-7.4,3.94-0.73.36-.73,0.36-3.28,1.49l-1.06.47a14,14,0,0,0-1.28.66L13.37,68a21.63,21.63,0,0,0,2.81-.87V49.08Zm20.48-4.19c-0.11.69-.22,2.15-0.25,3.24C36,57.86,35.08,62.6,32.75,66.83a18.26,18.26,0,0,0,6.74,7A15.15,15.15,0,0,0,37,77.69a26.26,26.26,0,0,1-6.63-7.51c-2.44,2.88-5.58,5.17-10.17,7.51a14.07,14.07,0,0,0-2.51-3.57,28.62,28.62,0,0,0,7-3.86,15.16,15.16,0,0,0,5.21-6A23.76,23.76,0,0,0,32,55.6c0.26-2.55.44-5.87,0.44-8.42a17.45,17.45,0,0,0-.11-2.37ZM26.59,58.7a36.23,36.23,0,0,0-5.14-9.11l3.24-2.11a55.81,55.81,0,0,1,5.32,9Z"/><path class="a" d="M51.11,66.68v6.19c3.5-.55,3.79-0.58,7.11-1.31v3.5c-3.86.91-6.7,1.46-13.23,2.55-0.47.11-.95,0.18-1.68,0.36l-0.69-4.19h0.55c0.47,0,2.66-.18,4.12-0.36V57c0-.44,0-0.69,0-1.64a49,49,0,0,1-4.55,2.08,17.82,17.82,0,0,0-1.79-4c6.3-2,11.66-5.39,14.87-9.36h4.3a24.48,24.48,0,0,0,6.49,5.43,35.55,35.55,0,0,0,8.85,3.83,17.18,17.18,0,0,0-1.82,4,37.08,37.08,0,0,1-4.81-2.15v8.89c0,0.73,0,1.06,0,1.64,0.29-.33.36-0.44,0.69-0.8l3.68,2a57.11,57.11,0,0,1-6.49,5A30.77,30.77,0,0,0,75,73.82a21.54,21.54,0,0,0-1.86,4c-5.72-1.13-9.55-2.7-12.75-5.25A20.51,20.51,0,0,1,55,66.68H51.11Zm5-13.45V52.18A8.65,8.65,0,0,0,55.89,50h4a11.84,11.84,0,0,0-.15,2.19v1.06h5.61A33,33,0,0,1,58,47.15a32.1,32.1,0,0,1-7.18,6.08h5.28Zm-5,5.1H65V56.51H51.11v1.82Zm0,5.14H65v-2H51.11v2Zm8.27,3.21a13.09,13.09,0,0,0,3.79,3.53,27.83,27.83,0,0,0,4.66-3.5c-0.8,0-1.42,0-2.22,0H59.38Z"/></svg>