<!-- Generator: Adobe Illustrator 19.2.1, SVG Export Plug-In  -->
<svg version="1.1"
	 xmlns="http://www.w3.org/2000/svg" xmlns:xlink="http://www.w3.org/1999/xlink" xmlns:a="http://ns.adobe.com/AdobeSVGViewerExtensions/3.0/"
	 x="0px" y="0px" width="277.7px" height="15.3px" viewBox="0 0 277.7 15.3" style="enable-background:new 0 0 277.7 15.3;"
	 xml:space="preserve">
<style type="text/css">
	.s{fill:#B3B3B3;}
</style>
<defs>
</defs>
<g>
	<path class="s" d="M0,14.5V2h5.9c2.3,0,3.8,1.6,3.8,4c0,2.4-1.5,4-3.8,4H2.7v4.5H0z M2.7,7.6h2.9c0.8,0,1.3-0.4,1.3-1.2V5.6
		c0-0.8-0.5-1.2-1.3-1.2H2.7V7.6z"/>
	<path class="s" d="M14.5,14.5h-2.7V2h6c2.3,0,3.8,1.6,3.8,4c0,1.7-0.8,3-2.3,3.6l2.5,4.9h-3l-2.2-4.6h-2V14.5z M17.4,7.6
		c0.8,0,1.3-0.4,1.3-1.2V5.6c0-0.8-0.5-1.2-1.3-1.2h-2.9v3.3H17.4z"/>
	<path class="s" d="M23.9,14.5V2h8.5v2.4h-5.8V7h5v2.4h-5v2.7h5.8v2.4H23.9z"/>
	<path class="s" d="M34.2,12.7l1.8-1.8c0.8,1,1.9,1.4,3.1,1.4c1.3,0,2-0.6,2-1.5c0-0.7-0.3-1.2-1.5-1.3l-1.2-0.2
		c-2.6-0.3-3.9-1.6-3.9-3.7c0-2.2,1.8-3.8,4.7-3.8c1.9,0,3.3,0.6,4.4,1.8l-1.8,1.8c-0.6-0.7-1.4-1.2-2.7-1.2c-1.2,0-1.8,0.5-1.8,1.2
		c0,0.9,0.4,1.2,1.5,1.3L40,6.9c2.6,0.4,3.8,1.6,3.8,3.7c0,2.4-1.8,4.1-4.9,4.1C36.7,14.7,35.2,13.9,34.2,12.7z"/>
	<path class="s" d="M46.1,14.5V2h8.5v2.4h-5.8V7h5v2.4h-5v2.7h5.8v2.4H46.1z"/>
	<path class="s" d="M60.9,8.6l-1.2-2.5h-0.1v8.5H57V2h3l3.4,5.9l1.2,2.5h0.1V2h2.6v12.6h-3L60.9,8.6z"/>
	<path class="s" d="M75.3,4.4v10.1h-2.7V4.4h-3.4V2h9.5v2.4H75.3z"/>
	<path class="s" d="M80.6,14.5V2h8.5v2.4h-5.8V7h5v2.4h-5v2.7h5.8v2.4H80.6z"/>
	<path class="s" d="M91.5,2h4.7c3.3,0,5.5,2.1,5.5,6.3c0,4.2-2.2,6.3-5.5,6.3h-4.7V2z M96.2,12.1c1.6,0,2.6-0.9,2.6-2.9V7.3
		c0-2-1-2.9-2.6-2.9h-2v7.7H96.2z"/>
	<path class="s" d="M108.3,2h6.1c2.1,0,3.3,1.3,3.3,3.2c0,1.9-1.1,2.6-2.3,2.7V8c1.2,0,2.8,0.8,2.8,3c0,2-1.4,3.6-3.2,3.6h-6.7V2z
		 M111,7.1h2.7c0.7,0,1.2-0.4,1.2-1.2V5.4c0-0.7-0.4-1.2-1.2-1.2H111V7.1z M111,12.2h3.1c0.7,0,1.2-0.4,1.2-1.1v-0.6
		c0-0.7-0.5-1.1-1.2-1.1H111V12.2z"/>
	<path class="s" d="M122.6,14.5V9.6L118.3,2h3.1l2.7,5h0l2.6-5h3l-4.3,7.6v4.9H122.6z"/>
</g>
<g id="XMLID_8_">
	<g id="XMLID_10_">
		<rect x="210.5" y="3.3" transform="matrix(0.7071 -0.7071 0.7071 0.7071 55.3921 152.2615)" class="s" width="2" height="12"/>
	</g>
	<g id="XMLID_9_">
		<rect x="205.5" y="8.3" transform="matrix(0.7071 -0.7071 0.7071 0.7071 55.3921 152.2615)" class="s" width="12" height="2"/>
	</g>
</g>
<g id="XMLID_1_">
	<g id="XMLID_7_">
		<path class="s" d="M226.7,15.3l-2.2-1.4l3.3-5.2l-1.5-0.3L224.4,1V0.7l0.3-0.1l2-0.5l1.7,6.3l0.8,0.2l4.1-6.5l2,1.3L226.7,15.3z
			 M225.6,13.7l0.9,0.6l7.8-12.7L233.4,1l-4,6.3L227.7,7l-1.6-6l-0.9,0.2l1.7,6.6l2.1,0.4L225.6,13.7z"/>
	</g>
	<g id="XMLID_6_">
		<path class="s" d="M241.2,15.2l-6.9-1.4L237,0.1l6.9,1.4l-0.4,2.4l-4.6-0.9l-0.7,3.3l4.6,0.9l-0.5,2.4l-4.5-0.9l-0.7,3.4
			l4.6,0.9L241.2,15.2z M235.1,13.2l5.4,1.1l0.2-0.9l-4.6-0.9l1-4.8l4.5,0.9l0.2-0.9l-4.6-0.9l1-4.8l4.6,0.9L243,2L237.6,1
			L235.1,13.2z"/>
	</g>
	<g id="XMLID_5_">
		<path class="s" d="M244.3,15.3l-2.1-1.1l6.8-14.1l4,0.8l0.8,14.1l-2.3,0.2l-0.2-2.6l-5.2-1L244.3,15.3z M245.8,10.7l6.3,1.2
			l0.2,2.4l0.9-0.1l-0.7-12.8l-2.9-0.6l-6.3,12.9l0.8,0.4L245.8,10.7z M252,11l-5.9-1.2l3.9-7.9l1.4,0.3L252,11z M247.3,9.3l3.9,0.8
			l-0.5-7.2l-0.3-0.1L247.3,9.3z"/>
	</g>
	<g id="XMLID_4_">
		<path class="s" d="M263.4,15.2l-2.3-0.5l1.1-5.5l-3.9-0.8l-1.3,6.8l-2.4-0.5l2.9-14.6l2.3,0.5l-1.1,5.5l3.9,0.8l1.3-6.8l2.4,0.5
			L263.4,15.2z M255.5,14.1l0.9,0.2l1.3-6.8l5.4,1.1l-1.1,5.5l0.9,0.2l2.6-13.2L264.6,1l-1.3,6.8l-5.4-1.1l1.1-5.5L258.1,1
			L255.5,14.1z"/>
	</g>
	<g id="XMLID_3_">
		<path class="s" d="M270,15.1l-4.4-3l1.4-2l3.6,2.4l1.6-0.3l-4.7-11l5.6-1.1l4.7,3.1l-1.3,2l-3.9-2.6L270.8,3l4.7,11L270,15.1z
			 M266.7,12l3.5,2.4l4.3-0.9l-4.7-11l2.9-0.6l3.5,2.3l0.5-0.8l-3.8-2.5l-4.4,0.9l4.7,11l-2.9,0.6l-3.2-2.1L266.7,12z"/>
	</g>
</g>
<g>
	<path class="s" d="M153,1.8c0.1,0.1,0.2,0.3,0.2,0.4c0,0.2,0,0.3-0.1,0.4l-4.5,7.1v4.1c0,0.2-0.1,0.3-0.2,0.5
		c-0.1,0.1-0.3,0.2-0.5,0.2c-0.2,0-0.3-0.1-0.5-0.2c-0.1-0.1-0.2-0.3-0.2-0.5V9.7l-4.5-7.1c-0.1-0.1-0.1-0.3-0.1-0.4
		c0-0.2,0.1-0.3,0.2-0.4c0.1-0.1,0.3-0.2,0.4-0.2c0.1,0,0.2,0,0.3,0.1c0.1,0,0.2,0.1,0.2,0.2l4.1,6.6L152,2c0.1-0.1,0.2-0.2,0.3-0.3
		c0.1-0.1,0.2-0.1,0.3-0.1C152.7,1.6,152.8,1.7,153,1.8z"/>
	<path class="s" d="M154.6,14.3c-0.1-0.1-0.2-0.3-0.2-0.5V2.3c0-0.2,0.1-0.3,0.2-0.5c0.1-0.1,0.3-0.2,0.5-0.2h7.7
		c0.2,0,0.3,0.1,0.5,0.2c0.1,0.1,0.2,0.3,0.2,0.4c0,0.2-0.1,0.3-0.2,0.4c-0.1,0.1-0.3,0.2-0.5,0.2h-7.1v4.6h5.2
		c0.2,0,0.3,0.1,0.5,0.2c0.1,0.1,0.2,0.3,0.2,0.4c0,0.2-0.1,0.3-0.2,0.4s-0.3,0.2-0.5,0.2h-5.2v4.6h7.1c0.2,0,0.3,0.1,0.5,0.2
		c0.1,0.1,0.2,0.3,0.2,0.4c0,0.2-0.1,0.3-0.2,0.4c-0.1,0.1-0.3,0.2-0.5,0.2h-7.7C154.9,14.5,154.7,14.5,154.6,14.3z"/>
	<path class="s" d="M175.2,13.9c0,0.2-0.1,0.3-0.2,0.5c-0.1,0.1-0.3,0.2-0.5,0.2c-0.3,0-0.5-0.1-0.6-0.4l-1.1-2.7h-6.4l-1.1,2.7
		c-0.1,0.3-0.3,0.4-0.6,0.4c-0.2,0-0.3-0.1-0.5-0.2c-0.1-0.1-0.2-0.3-0.2-0.5c0-0.1,0-0.2,0-0.3L169,2.1c0.1-0.3,0.3-0.4,0.6-0.4
		c0.3,0,0.5,0.1,0.6,0.4l4.9,11.5C175.1,13.7,175.2,13.8,175.2,13.9z M166.9,10.3h5.5l-2.7-6.6L166.9,10.3z"/>
	<path class="s" d="M177.8,14c-0.8-0.4-1.4-1-1.7-1.8c0-0.1-0.1-0.2-0.1-0.3c0-0.2,0.1-0.3,0.2-0.4c0.1-0.1,0.3-0.2,0.5-0.2
		c0.1,0,0.3,0,0.4,0.1c0.1,0.1,0.2,0.2,0.3,0.3c0.3,0.5,0.7,0.9,1.3,1.2c0.6,0.3,1.3,0.5,2.1,0.5c0.9,0,1.6-0.2,2.2-0.7
		c0.5-0.4,0.8-1,0.8-1.8c0-0.7-0.3-1.3-0.8-1.7c-0.5-0.5-1.3-0.8-2.3-0.9c-1.3-0.2-2.3-0.6-3-1.2s-1.1-1.4-1.1-2.4
		c0-0.7,0.2-1.2,0.5-1.7s0.9-0.9,1.5-1.2c0.6-0.3,1.4-0.4,2.2-0.4c0.9,0,1.6,0.2,2.3,0.6c0.7,0.4,1.2,0.9,1.6,1.5
		c0.1,0.1,0.1,0.3,0.1,0.4c0,0.2-0.1,0.4-0.3,0.5c-0.1,0-0.2,0.1-0.3,0.1c-0.1,0-0.2,0-0.3-0.1c-0.1-0.1-0.2-0.1-0.3-0.3
		c-0.6-1-1.5-1.5-2.8-1.5c-0.9,0-1.6,0.2-2.1,0.6s-0.8,0.9-0.8,1.6c0,1.3,1,2.1,3.1,2.3c1.4,0.2,2.4,0.6,3.1,1.3
		c0.7,0.6,1,1.5,1,2.5c0,0.8-0.2,1.4-0.6,2c-0.4,0.6-0.9,1-1.5,1.3c-0.6,0.3-1.4,0.4-2.2,0.4C179.5,14.7,178.6,14.5,177.8,14z"/>
	<path class="s" d="M195.4,1.8c0.1,0.1,0.2,0.3,0.2,0.4c0,0.2-0.1,0.3-0.2,0.4s-0.3,0.2-0.4,0.2h-3.9v11.1c0,0.2-0.1,0.3-0.2,0.5
		c-0.1,0.1-0.3,0.2-0.5,0.2c-0.2,0-0.3-0.1-0.5-0.2c-0.1-0.1-0.2-0.3-0.2-0.5V2.8h-3.9c-0.2,0-0.3-0.1-0.4-0.2
		c-0.1-0.1-0.2-0.2-0.2-0.4c0-0.2,0.1-0.3,0.2-0.4c0.1-0.1,0.3-0.2,0.4-0.2h9.1C195.2,1.6,195.3,1.7,195.4,1.8z"/>
	<path class="s" d="M195,14.5c-0.2-0.2-0.3-0.4-0.3-0.7c0-0.3,0.1-0.5,0.3-0.7c0.2-0.2,0.4-0.3,0.7-0.3c0.3,0,0.5,0.1,0.7,0.3
		c0.2,0.2,0.3,0.4,0.3,0.7c0,0.3-0.1,0.5-0.3,0.7s-0.4,0.3-0.7,0.3C195.4,14.8,195.2,14.7,195,14.5z"/>
</g>
</svg>
